<svg width="18" height="18" viewBox="0 0 18 18" fill="none" xmlns="http://www.w3.org/2000/svg"><path d="M11.8 13.2 8 9.4V4h2v4.6l3.2 3.2-1.4 1.4ZM9 18c-2.3 0-4.304-.763-6.012-2.288C1.279 14.187.3 12.283.05 10H2.1c.233 1.733 1.004 3.167 2.312 4.3C5.721 15.433 7.25 16 9 16c1.95 0 3.604-.68 4.962-2.038C15.321 12.604 16 10.95 16 9c0-1.95-.68-3.604-2.038-4.963C12.604 2.679 10.95 2 9 2a6.75 6.75 0 0 0-3.225.8A7.431 7.431 0 0 0 3.25 5H6v2H0V1h2v2.35A8.73 8.73 0 0 1 5.113.875 8.928 8.928 0 0 1 9 0a8.71 8.71 0 0 1 3.513.712 9.168 9.168 0 0 1 2.85 1.925 9.167 9.167 0 0 1 1.925 2.85A8.715 8.715 0 0 1 18 9c0 1.25-.237 2.42-.712 3.512a9.151 9.151 0 0 1-1.925 2.85 9.158 9.158 0 0 1-2.85 1.926A8.715 8.715 0 0 1 9 18Z" fill="#000"/></svg>