<svg width="24" height="24" viewBox="0 0 24 24" fill="none" xmlns="http://www.w3.org/2000/svg"><mask id="a" maskUnits="userSpaceOnUse" x="0" y="0" width="24" height="24"><path fill="#D9D9D9" d="M0 0h24v24H0z"/></mask><g mask="url(#a)"><path d="M17.225 8.775h1.55v-1.55h-1.55v1.55Zm0 4h1.55v-1.55h-1.55v1.55Zm0 4h1.55v-1.55h-1.55v1.55ZM16 20v-1h5V5h-9.625v2.2l-1-.725V4H22v16h-6ZM2 20v-8.5l6-4.275 6 4.275V20H9.275v-4.5h-2.55V20H2Zm1-1h2.725v-4.5h4.55V19H13v-7L8 8.5 3 12v7Z" fill="#19E09C"/></g></svg>