<svg width="24" height="24" viewBox="0 0 24 24" fill="none" xmlns="http://www.w3.org/2000/svg"><mask id="a" maskUnits="userSpaceOnUse" x="0" y="0" width="24" height="24"><path fill="#D9D9D9" d="M0 0h24v24H0z"/></mask><g mask="url(#a)"><path d="M5.65 13.2h1c.217 1.05.7 1.95 1.45 2.7.75.75 1.65 1.233 2.7 1.45v1a6.21 6.21 0 0 1-3.387-1.763A6.21 6.21 0 0 1 5.65 13.2Zm5.15-7.55v1c-1.05.217-1.95.7-2.7 1.45a5.232 5.232 0 0 0-1.45 2.7h-1a6.216 6.216 0 0 1 1.763-3.388A6.214 6.214 0 0 1 10.8 5.65ZM12 10.5c.433 0 .792.142 1.075.425.283.283.425.642.425 1.075 0 .417-.142.77-.425 1.062-.283.292-.642.438-1.075.438-.417 0-.77-.146-1.062-.438A1.444 1.444 0 0 1 10.5 12c0-.433.146-.792.438-1.075A1.467 1.467 0 0 1 12 10.5Zm5.35 2.7h1a6.21 6.21 0 0 1-1.763 3.387A6.21 6.21 0 0 1 13.2 18.35v-1c1.05-.217 1.95-.7 2.7-1.45a5.232 5.232 0 0 0 1.45-2.7ZM13.2 5.65a6.214 6.214 0 0 1 3.387 1.762A6.216 6.216 0 0 1 18.35 10.8h-1a5.232 5.232 0 0 0-1.45-2.7 5.232 5.232 0 0 0-2.7-1.45v-1ZM3 8V4.625c0-.467.154-.854.463-1.163C3.771 3.154 4.158 3 4.625 3H8v1H4.625a.597.597 0 0 0-.437.188.597.597 0 0 0-.188.437V8H3Zm5 13H4.625c-.467 0-.854-.154-1.162-.462-.309-.309-.463-.696-.463-1.163V16h1v3.375c0 .167.063.312.188.437s.27.188.437.188H8v1Zm8 0v-1h3.375a.597.597 0 0 0 .437-.188.597.597 0 0 0 .188-.437V16h1v3.375c0 .467-.154.854-.462 1.163-.309.308-.696.462-1.163.462H16Zm4-13V4.625a.597.597 0 0 0-.188-.437.597.597 0 0 0-.437-.188H16V3h3.375c.467 0 .854.154 1.163.462.308.309.462.696.462 1.163V8h-1Z" fill="#19E09C"/></g></svg>