<svg width="24" height="24" viewBox="0 0 24 24" fill="none" xmlns="http://www.w3.org/2000/svg"><mask id="a" maskUnits="userSpaceOnUse" x="0" y="0" width="24" height="24"><path fill="#D9D9D9" d="M0 0h24v24H0z"/></mask><g mask="url(#a)"><path d="m12 21.775-6.575-4.95a.847.847 0 0 1-.312-.35A1.044 1.044 0 0 1 5 16V4.625c0-.467.154-.854.463-1.163C5.771 3.154 6.158 3 6.625 3h10.75c.467 0 .854.154 1.163.462.308.309.462.696.462 1.163V16c0 .167-.037.325-.112.475a.854.854 0 0 1-.313.35L12 21.775Zm0-1.275 5.75-4.3a.61.61 0 0 0 .25-.5V4.625a.597.597 0 0 0-.188-.437.597.597 0 0 0-.437-.188H6.625a.597.597 0 0 0-.437.188.597.597 0 0 0-.188.437V15.7a.61.61 0 0 0 .25.5L12 20.5Zm-1.05-6.2 4.95-4.95-.7-.725-4.25 4.25L8.8 10.75l-.7.7 2.85 2.85ZM6.25 4H6h12H6.25Z" fill="#19E09C"/></g></svg>