<svg width="16" height="16" viewBox="0 0 16 16" fill="none" xmlns="http://www.w3.org/2000/svg"><path d="M14.646 15.5c-1.82 0-3.58-.396-5.281-1.188a15.693 15.693 0 0 1-4.521-3.156 15.694 15.694 0 0 1-3.156-4.521A12.379 12.379 0 0 1 .5 1.354.81.81 0 0 1 .76.75.86.86 0 0 1 1.375.5h3.458a.76.76 0 0 1 .511.188.75.75 0 0 1 .26.479l.584 2.979c.027.18.02.347-.021.5a.885.885 0 0 1-.229.396L3.917 7.104c.527.945 1.225 1.854 2.093 2.729a14.582 14.582 0 0 0 2.865 2.25l1.958-2c.14-.139.292-.232.459-.281.167-.049.347-.059.541-.031l3 .625a.751.751 0 0 1 .479.26.76.76 0 0 1 .188.511v3.458a.86.86 0 0 1-.25.615.807.807 0 0 1-.604.26ZM3.083 5.438l1.313-1.313-.354-1.875h-1.75c.07.555.163 1.094.281 1.615.118.52.288 1.045.51 1.573Zm10.667 8.27v-1.75l-1.917-.396-1.312 1.355c.541.208 1.076.375 1.604.5s1.07.222 1.625.291Z" fill="#fff"/></svg>