<svg width="18" height="18" viewBox="0 0 18 18" fill="none" xmlns="http://www.w3.org/2000/svg"><path d="M3.917 13.167a7.397 7.397 0 0 1 2.364-1.313A8.489 8.489 0 0 1 9 11.417c.945 0 1.851.146 2.719.437a7.65 7.65 0 0 1 2.385 1.313 6.89 6.89 0 0 0 1.084-1.907A6.378 6.378 0 0 0 15.583 9c0-1.833-.639-3.389-1.916-4.667C12.389 3.056 10.833 2.417 9 2.417c-1.833 0-3.389.639-4.667 1.916C3.056 5.611 2.417 7.167 2.417 9c0 .805.135 1.559.406 2.26.27.701.635 1.337 1.094 1.907ZM9 9.854c-.82 0-1.51-.281-2.073-.844-.563-.562-.844-1.253-.844-2.072 0-.82.281-1.511.844-2.073.563-.563 1.254-.844 2.073-.844.82 0 1.51.281 2.073.844.563.562.844 1.253.844 2.073 0 .82-.281 1.51-.844 2.072-.563.563-1.254.844-2.073.844Zm0 7.479a8.119 8.119 0 0 1-3.25-.656 8.41 8.41 0 0 1-2.646-1.781 8.412 8.412 0 0 1-1.781-2.646A8.118 8.118 0 0 1 .667 9c0-1.153.219-2.236.656-3.25a8.412 8.412 0 0 1 1.781-2.646A8.412 8.412 0 0 1 5.75 1.323 8.118 8.118 0 0 1 9 .667c1.153 0 2.236.219 3.25.656a8.412 8.412 0 0 1 2.646 1.781 8.41 8.41 0 0 1 1.781 2.646A8.119 8.119 0 0 1 17.333 9a8.119 8.119 0 0 1-.656 3.25 8.41 8.41 0 0 1-1.781 2.646 8.41 8.41 0 0 1-2.646 1.781 8.119 8.119 0 0 1-3.25.656Zm.021-1.75c.68 0 1.347-.104 2-.312a6.094 6.094 0 0 0 1.771-.896 5.38 5.38 0 0 0-1.75-.906A6.895 6.895 0 0 0 9 13.167c-.708 0-1.385.1-2.031.302a5.653 5.653 0 0 0-1.761.906 6.065 6.065 0 0 0 1.782.896c.66.208 1.336.312 2.031.312ZM9 8.104c.347 0 .629-.108.844-.323.215-.215.323-.496.323-.843s-.108-.629-.323-.844c-.215-.215-.497-.323-.844-.323s-.629.108-.844.323c-.215.215-.323.497-.323.844s.108.628.323.843c.215.215.497.323.844.323Z" fill="#000"/></svg>