<svg width="141" height="141" viewBox="0 0 141 141" fill="none" xmlns="http://www.w3.org/2000/svg">
  <circle cx="70.5" cy="70.5" r="69" stroke="#19E09C"/>
  <mask id="a" maskUnits="userSpaceOnUse" x="18" y="18" width="106" height="106">
    <path fill="#D9D9D9" d="M18 18h106v106H18z"/>
  </mask>
  <g mask="url(#a)">
    <path d="M53.555 96.838H65.48v-3.092h-8.833v-5.742h8.833V76.08H53.555v3.092h8.833v5.741h-8.833v11.925Zm31.8 0h3.092V76.079h-3.092v8.834h-5.742v-8.834h-3.091v11.925h8.833v8.834ZM107.88 65.92v35.333c0 1.914-.626 3.497-1.877 4.748-1.252 1.251-2.834 1.877-4.748 1.877H40.747c-1.914 0-3.497-.626-4.748-1.877-1.252-1.251-1.877-2.834-1.877-4.748V65.7a11.17 11.17 0 0 1-4.139-5.243c-.848-2.173-.867-4.474-.057-6.903l4.196-13.912c.589-1.767 1.509-3.129 2.76-4.086 1.251-.957 2.834-1.435 4.748-1.435h58.521c1.914 0 3.496.441 4.748 1.325 1.251.883 2.171 2.208 2.76 3.975l4.417 14.133c.809 2.43.792 4.766-.053 7.01-.848 2.246-2.229 4.032-4.143 5.357Zm-27.162-.884c3.091 0 5.392-.828 6.903-2.486 1.507-1.655 2.15-3.329 1.93-5.022l-3.092-20.317H72.547v19.213c0 2.356.81 4.38 2.429 6.073 1.62 1.693 3.533 2.54 5.742 2.54Zm-19.876 0c2.577 0 4.657-.846 6.241-2.54 1.581-1.692 2.372-3.716 2.372-6.072V37.213H55.542L52.451 57.97c-.147 1.251.515 2.741 1.987 4.47 1.472 1.73 3.607 2.596 6.404 2.596Zm-19.654 0c2.135 0 3.938-.718 5.41-2.155 1.473-1.434 2.393-3.218 2.761-5.353l2.871-20.317h-10.6c-1.251 0-2.245.276-2.981.826-.736.554-1.288 1.383-1.657 2.487l-3.974 13.692c-.81 2.576-.479 5.023.993 7.34 1.472 2.32 3.865 3.48 7.177 3.48Zm59.625 0c2.798 0 5.079-1.086 6.846-3.259 1.767-2.17 2.208-4.69 1.325-7.561l-4.196-13.913c-.368-1.104-.92-1.896-1.656-2.376-.736-.477-1.73-.715-2.981-.715h-10.38l2.871 20.316c.368 2.135 1.289 3.92 2.76 5.353 1.473 1.437 3.277 2.155 5.411 2.155Zm-60.066 39.751h60.508c1.031 0 1.877-.332 2.54-.994.662-.663.993-1.509.993-2.54V67.467c-.662.22-1.325.385-1.987.494a11.93 11.93 0 0 1-1.988.168c-1.987 0-3.736-.405-5.247-1.214-1.507-.81-2.924-2.098-4.249-3.865-1.104 1.472-2.502 2.687-4.195 3.644-1.693.957-3.828 1.435-6.404 1.435-1.694 0-3.313-.424-4.859-1.272-1.546-.845-3.165-2.114-4.858-3.807-1.546 1.693-3.24 2.962-5.08 3.807-1.84.848-3.533 1.272-5.079 1.272-1.766 0-3.533-.349-5.3-1.047-1.766-.7-3.312-2.044-4.637-4.032-2.356 2.356-4.36 3.791-6.016 4.306-1.657.516-2.891.773-3.7.773a11.9 11.9 0 0 1-1.988-.168 12.908 12.908 0 0 1-1.988-.494v33.787c0 1.031.331 1.877.994 2.54.663.662 1.51.994 2.54.994Zm60.508 0H40.747h60.508Z" fill="#19E09C"/>
  </g>
</svg>
