<svg width="141" height="141" viewBox="0 0 141 141" fill="none" xmlns="http://www.w3.org/2000/svg">
  <circle cx="70.5" cy="70.5" r="69" stroke="#19E09C" strokeWidth="3"/>
  <mask id="a" maskUnits="userSpaceOnUse" x="21" y="21" width="99" height="99">
    <path fill="#D9D9D9" d="M21 21h98.45v98.445H21z"/>
  </mask>
  <g mask="url(#a)">
    <path d="M91.965 101.807H51.97v-42.66l24.817-24.406.82.82c.343.342.634.769.874 1.28.238.514.357.977.357 1.387v.41l-4.102 20.51h29.125c1.572 0 2.992.631 4.258 1.894 1.263 1.267 1.895 2.686 1.895 4.258v4.102c0 .342-.034.718-.102 1.128-.069.41-.171.786-.308 1.128L98.734 97.5c-.547 1.23-1.47 2.256-2.77 3.076-1.299.821-2.632 1.231-3.999 1.231Zm-37.124-2.871h37.124c.752 0 1.522-.206 2.31-.616.784-.41 1.382-1.094 1.792-2.05l11.076-26.048V65.3c0-.957-.308-1.743-.923-2.358-.616-.616-1.402-.923-2.359-.923H71.25l4.512-22.355-20.92 20.714v38.558Zm0-38.558v38.558-38.558Zm-2.871-1.23v2.87H37.408v36.918H51.97v2.871H34.536v-42.66H51.97Z" fill="#19E09C"/>
  </g>
</svg>
