<svg width="141" height="141" viewBox="0 0 141 141" fill="none" xmlns="http://www.w3.org/2000/svg">
  <circle cx="70.5" cy="70.5" r="69" stroke="#19E09C" strokeWidth="3"/>
  <mask id="a" maskUnits="userSpaceOnUse" x="18" y="19" width="105" height="104">
    <path fill="#D9D9D9" d="M18 19h104.003v104H18z"/>
  </mask>
  <g mask="url(#a)">
    <path d="M70.001 113.033c-9.028 0-17.062-2.491-24.103-7.475-7.043-4.983-12.19-11.7-15.44-20.15v15.059h-3.033V80.1h20.367v3.034H32.95c2.6 8.088 7.33 14.588 14.192 19.499C54.003 107.545 61.623 110 70.001 110c5.128 0 9.95-.903 14.465-2.708 4.513-1.806 8.502-4.316 11.97-7.532 3.466-3.212 6.3-7.04 8.501-11.483 2.205-4.44 3.523-9.26 3.957-14.46h3.033c-.361 5.489-1.714 10.617-4.06 15.383-2.349 4.767-5.382 8.92-9.1 12.458-3.721 3.539-8.055 6.32-13 8.342-4.95 2.022-10.205 3.033-15.766 3.033Zm-1.733-13.866v-5.2c-2.817-.65-5.254-1.733-7.31-3.25-2.06-1.517-3.74-3.683-5.04-6.5l2.816-1.3c1.3 2.6 2.978 4.622 5.035 6.067 2.06 1.444 4.354 2.166 6.882 2.166 2.6 0 5.092-.705 7.475-2.115 2.384-1.406 3.575-3.735 3.575-6.985 0-2.528-.775-4.495-2.327-5.902-1.554-1.41-4.678-2.981-9.373-4.715-4.767-1.733-8.125-3.502-10.075-5.308C57.976 64.32 57 61.9 57 58.867c0-2.528.975-4.875 2.925-7.042 1.95-2.167 4.803-3.503 8.558-4.008v-4.983h3.25v4.983c2.167.144 4.207.848 6.12 2.11 1.915 1.266 3.414 2.873 4.497 4.823l-2.816 1.084a12.92 12.92 0 0 0-3.792-3.74c-1.517-.974-3.359-1.46-5.525-1.46-2.962 0-5.364.794-7.207 2.383-1.84 1.589-2.76 3.539-2.76 5.85 0 2.31.614 4.08 1.841 5.308 1.228 1.228 4.298 2.709 9.209 4.442 5.2 1.878 8.74 3.828 10.617 5.85 1.878 2.022 2.817 4.55 2.817 7.583 0 2.022-.415 3.792-1.244 5.309-.832 1.516-1.898 2.763-3.198 3.74a14.668 14.668 0 0 1-4.277 2.218c-1.555.505-3.054.794-4.498.867v4.983h-3.25ZM28.075 68.183c.505-5.85 1.967-11.177 4.385-15.98 2.421-4.802 5.528-8.936 9.322-12.403 3.79-3.466 8.105-6.139 12.944-8.016 4.839-1.878 9.93-2.817 15.275-2.817 8.811 0 16.846 2.509 24.103 7.527 7.26 5.02 12.406 11.864 15.44 20.531V41.533h3.033V61.9H92.21v-3.033h14.842c-2.383-7.8-7.023-14.228-13.92-19.283C86.235 34.528 78.524 32 70.002 32c-4.839 0-9.498.867-13.975 2.6-4.478 1.733-8.487 4.17-12.026 7.31-3.539 3.144-6.464 6.935-8.775 11.376-2.311 4.443-3.683 9.409-4.117 14.897h-3.033Z" fill="#19E09C"/>
  </g>
</svg>
