<svg width="18" height="17" viewBox="0 0 18 17" fill="none" xmlns="http://www.w3.org/2000/svg"><path d="M9 12.833c-1.268 0-2.349-.447-3.242-1.34-.894-.894-1.341-1.975-1.341-3.243 0-1.268.447-2.35 1.34-3.243.894-.894 1.975-1.34 3.243-1.34 1.268 0 2.35.446 3.243 1.34.894.894 1.34 1.975 1.34 3.243 0 1.268-.446 2.349-1.34 3.242-.894.894-1.975 1.341-3.243 1.341ZM.75 5.5V1.833c0-.504.18-.936.538-1.295C1.648.18 2.08 0 2.583 0H6.25v1.833H2.583V5.5H.75Zm5.5 11H2.583a1.77 1.77 0 0 1-1.295-.538 1.768 1.768 0 0 1-.538-1.295V11h1.833v3.667H6.25V16.5Zm5.5 0v-1.833h3.667V11h1.833v3.667c0 .504-.18.936-.538 1.295-.36.359-.791.538-1.295.538H11.75Zm3.667-11V1.833H11.75V0h3.667c.504 0 .936.18 1.295.538.359.36.538.791.538 1.295V5.5h-1.833ZM9 11c.764 0 1.413-.267 1.948-.802a2.652 2.652 0 0 0 .802-1.948c0-.764-.267-1.413-.802-1.948A2.652 2.652 0 0 0 9 5.5c-.764 0-1.413.267-1.948.802A2.652 2.652 0 0 0 6.25 8.25c0 .764.267 1.413.802 1.948A2.652 2.652 0 0 0 9 11Z" fill="#9C19E0"/></svg>