<svg width="20" height="20" viewBox="0 0 20 20" fill="none" xmlns="http://www.w3.org/2000/svg"><path d="m10 19.25-1.45-1.3c-2.617-2.333-4.696-4.363-6.238-6.088C.771 10.137 0 8.317 0 6.4c0-1.567.525-2.875 1.575-3.925C2.625 1.425 3.933.9 5.5.9c.883 0 1.717.187 2.5.562A5.96 5.96 0 0 1 10 3a5.962 5.962 0 0 1 2-1.538A5.721 5.721 0 0 1 14.5.9c1.567 0 2.875.525 3.925 1.575C19.475 3.525 20 4.833 20 6.4c0 1.917-.77 3.737-2.312 5.462-1.542 1.725-3.621 3.755-6.238 6.088L10 19.25Zm0-2.7c2.383-2.167 4.313-4.033 5.788-5.6C17.263 9.383 18 7.867 18 6.4c0-1-.333-1.833-1-2.5s-1.5-1-2.5-1c-.783 0-1.508.22-2.175.662-.667.442-1.125 1.005-1.375 1.688h-1.9c-.25-.683-.708-1.246-1.375-1.688A3.862 3.862 0 0 0 5.5 2.9c-1 0-1.833.333-2.5 1S2 5.4 2 6.4c0 1.467.738 2.983 2.213 4.55 1.475 1.567 3.404 3.433 5.787 5.6Z" fill="#9C19E0" fillOpacity=".3"/></svg>