<svg width="18" height="17" viewBox="0 0 18 17" fill="none" xmlns="http://www.w3.org/2000/svg"><path d="M3 14.25v1a.97.97 0 0 1-.287.712.968.968 0 0 1-.713.288H1a.965.965 0 0 1-.712-.288A.965.965 0 0 1 0 15.25v-8l2.1-6c.1-.3.28-.542.538-.725C2.896.342 3.183.25 3.5.25h11c.317 0 .604.092.863.275.258.183.437.425.537.725l2.1 6v8c0 .283-.096.52-.288.712a.965.965 0 0 1-.712.288h-1a.965.965 0 0 1-.712-.288.965.965 0 0 1-.288-.712v-1H3Zm-.2-9h12.4l-1.05-3H3.85l-1.05 3Zm1.7 6c.417 0 .77-.146 1.062-.438.292-.291.438-.645.438-1.062 0-.417-.146-.77-.438-1.062A1.444 1.444 0 0 0 4.5 8.25c-.417 0-.77.146-1.062.438A1.444 1.444 0 0 0 3 9.75c0 .417.146.77.438 1.062.291.292.645.438 1.062.438Zm9 0c.417 0 .77-.146 1.062-.438.292-.291.438-.645.438-1.062 0-.417-.146-.77-.438-1.062A1.444 1.444 0 0 0 13.5 8.25c-.417 0-.77.146-1.062.438A1.444 1.444 0 0 0 12 9.75c0 .417.146.77.438 1.062.291.292.645.438 1.062.438Zm-11.5 1h14v-5H2v5Z" fill="#E8E8E8"/></svg>