<svg width="20" height="15" viewBox="0 0 20 15" fill="none" xmlns="http://www.w3.org/2000/svg"><path d="M0 14.25v-6c0-.45.092-.858.275-1.225A3.46 3.46 0 0 1 1 6.05v-2.8c0-.833.292-1.542.875-2.125A2.893 2.893 0 0 1 4 .25h4c.383 0 .742.071 1.075.213.333.141.642.337.925.587.283-.25.592-.446.925-.587A2.714 2.714 0 0 1 12 .25h4c.833 0 1.542.292 2.125.875S19 2.417 19 3.25v2.8c.3.283.542.608.725.975.183.367.275.775.275 1.225v6h-2v-2H2v2H0Zm11-9h6v-2a.968.968 0 0 0-.288-.713A.967.967 0 0 0 16 2.25h-4a.967.967 0 0 0-.712.287.968.968 0 0 0-.288.713v2Zm-8 0h6v-2a.97.97 0 0 0-.287-.713A.97.97 0 0 0 8 2.25H4a.97.97 0 0 0-.713.287A.97.97 0 0 0 3 3.25v2Zm-1 5h16v-2a.968.968 0 0 0-.288-.713A.967.967 0 0 0 17 7.25H3a.97.97 0 0 0-.713.287A.97.97 0 0 0 2 8.25v2Zm16 0H2h16Z" fill="#E8E8E8"/></svg>