<svg width="36" height="23" viewBox="0 0 36 23" fill="none" xmlns="http://www.w3.org/2000/svg">
  <path d="M0 22.5v-10c0-.6.167-1.234.5-1.9A3.277 3.277 0 0 1 2 9.1V4.5c0-1.134.383-2.084 1.15-2.85C3.917.884 4.867.5 6 .5h9c.7 0 1.291.142 1.774.426.484.282.893.674 1.226 1.174.333-.5.742-.892 1.226-1.174C19.709.642 20.3.5 21 .5h9c1.133 0 2.083.384 2.85 1.15.767.766 1.15 1.716 1.15 2.85v4.6a3.277 3.277 0 0 1 1.5 1.5c.333.666.5 1.3.5 1.9v10h-2v-4H2v4H0Zm19-14h13v-4c0-.566-.192-1.042-.576-1.426-.383-.382-.857-.574-1.424-.574h-9c-.567 0-1.041.192-1.424.574-.384.384-.576.86-.576 1.426v4Zm-15 0h13v-4c0-.566-.191-1.042-.574-1.426-.384-.382-.86-.574-1.426-.574H6c-.567 0-1.042.192-1.426.574C4.191 3.458 4 3.934 4 4.5v4Zm-2 8h32v-4c0-.566-.192-1.042-.576-1.426-.383-.382-.857-.574-1.424-.574H4c-.567 0-1.042.192-1.426.574-.383.384-.574.86-.574 1.426v4Z" fill="#9C9C9C"/>
</svg>
