<svg width="30" height="39" viewBox="0 0 30 39" fill="none" xmlns="http://www.w3.org/2000/svg">
  <path d="M9.9 19.9v-8.2L15 8.3l5.1 3.4v8.2h-3.4v-4.8h-3.4v4.8H9.9ZM15 35.5c4.167-3.634 7.375-7.266 9.624-10.9C26.874 20.966 28 17.9 28 15.4c0-3.934-1.258-7.15-3.774-9.65C21.709 3.25 18.633 2 15 2c-3.633 0-6.708 1.25-9.224 3.75C3.259 8.25 2 11.466 2 15.4c0 2.5 1.125 5.566 3.376 9.2 2.25 3.634 5.457 7.266 9.624 10.9Zm0 2.75c-5.067-4.5-8.833-8.666-11.3-12.5C1.233 21.916 0 18.466 0 15.4c0-4.7 1.509-8.442 4.526-11.224C7.542 1.392 11.033 0 15 0c3.967 0 7.459 1.392 10.476 4.176C28.492 6.958 30 10.7 30 15.4c0 3.066-1.233 6.516-3.7 10.35-2.467 3.834-6.233 8-11.3 12.5Z" fill="#9C9C9C"/>
</svg>
