<svg width="32" height="33" viewBox="0 0 32 33" fill="none" xmlns="http://www.w3.org/2000/svg">
  <path d="M16 24.5c-2.234 0-4.124-.776-5.674-2.326C8.776 20.624 8 18.734 8 16.5c0-2.234.776-4.126 2.326-5.676C11.876 9.274 13.766 8.5 16 8.5c2.234 0 4.126.774 5.676 2.324C23.226 12.374 24 14.266 24 16.5s-.774 4.124-2.324 5.674C20.126 23.724 18.234 24.5 16 24.5Zm0-2c1.666 0 3.084-.584 4.25-1.75S22 18.166 22 16.5s-.584-3.084-1.75-4.25S17.666 10.5 16 10.5s-3.084.584-4.25 1.75S10 14.834 10 16.5s.584 3.084 1.75 4.25S14.334 22.5 16 22.5Zm-12.75 10c-.934 0-1.708-.308-2.324-.924C.308 30.958 0 30.184 0 29.25V22.5h2v6.75c0 .334.126.624.376.874s.54.376.874.376H10v2H3.25Zm18.75 0v-2h6.75c.334 0 .624-.126.874-.376s.376-.54.376-.874V22.5h2v6.75c0 .934-.308 1.708-.924 2.326-.618.616-1.392.924-2.326.924H22Zm-22-22V3.75c0-.934.308-1.708.926-2.324C1.542.808 2.316.5 3.25.5H10v2H3.25c-.334 0-.624.126-.874.376S2 3.416 2 3.75v6.75H0Zm30 0V3.75c0-.334-.126-.624-.376-.874s-.54-.376-.874-.376H22v-2h6.75c.934 0 1.708.308 2.326.926.616.616.924 1.39.924 2.324v6.75h-2Z" fill="#9C9C9C"/>
</svg>
