<svg width="14" height="19" viewBox="0 0 14 19" fill="none" xmlns="http://www.w3.org/2000/svg"><path d="M3 15.25a.968.968 0 0 1-.713-.288A.967.967 0 0 1 2 14.25a.97.97 0 0 1 .287-.712A.968.968 0 0 1 3 13.25c.283 0 .521.096.713.288A.967.967 0 0 1 4 14.25a.97.97 0 0 1-.287.712.968.968 0 0 1-.713.288Zm4 0a.965.965 0 0 1-.712-.288A.965.965 0 0 1 6 14.25c0-.283.096-.52.288-.712A.965.965 0 0 1 7 13.25c.283 0 .521.096.713.288A.967.967 0 0 1 8 14.25a.97.97 0 0 1-.287.712.968.968 0 0 1-.713.288Zm4 0a.965.965 0 0 1-.712-.288.965.965 0 0 1-.288-.712c0-.283.096-.52.288-.712A.965.965 0 0 1 11 13.25c.283 0 .52.096.712.288a.965.965 0 0 1 .288.712c0 .283-.096.52-.288.712a.965.965 0 0 1-.712.288Zm-11-4v-2c0-1.767.567-3.3 1.7-4.6 1.133-1.3 2.567-2.067 4.3-2.3V.25h2v2.1c1.733.233 3.167 1 4.3 2.3 1.133 1.3 1.7 2.833 1.7 4.6v2H0Zm2-2h10c0-1.383-.487-2.563-1.462-3.538C9.563 4.737 8.383 4.25 7 4.25s-2.562.487-3.537 1.462C2.488 6.687 2 7.867 2 9.25Zm1 9a.968.968 0 0 1-.713-.288A.967.967 0 0 1 2 17.25a.97.97 0 0 1 .287-.712A.968.968 0 0 1 3 16.25c.283 0 .521.096.713.288A.967.967 0 0 1 4 17.25a.97.97 0 0 1-.287.712.968.968 0 0 1-.713.288Zm4 0a.965.965 0 0 1-.712-.288A.965.965 0 0 1 6 17.25c0-.283.096-.52.288-.712A.965.965 0 0 1 7 16.25c.283 0 .521.096.713.288A.967.967 0 0 1 8 17.25a.97.97 0 0 1-.287.712.968.968 0 0 1-.713.288Zm4 0a.965.965 0 0 1-.712-.288.965.965 0 0 1-.288-.712c0-.283.096-.52.288-.712A.965.965 0 0 1 11 16.25c.283 0 .52.096.712.288a.965.965 0 0 1 .288.712c0 .283-.096.52-.288.712a.965.965 0 0 1-.712.288Z" fill="#E8E8E8"/></svg>