<svg width="24" height="33" viewBox="0 0 24 33" fill="none" xmlns="http://www.w3.org/2000/svg">
  <path d="M4.15 26.35c-.433 0-.8-.15-1.1-.45-.3-.3-.45-.666-.45-1.1 0-.434.15-.8.45-1.1.3-.3.667-.45 1.1-.45.433 0 .8.15 1.1.45.3.3.45.666.45 1.1 0 .434-.15.8-.45 1.1-.3.3-.667.45-1.1.45Zm7.85 0c-.433 0-.8-.15-1.1-.45-.3-.3-.45-.666-.45-1.1 0-.434.15-.8.45-1.1.3-.3.667-.45 1.1-.45.433 0 .8.15 1.1.45.3.3.45.666.45 1.1 0 .434-.15.8-.45 1.1-.3.3-.667.45-1.1.45Zm7.85 0c-.433 0-.8-.15-1.1-.45-.3-.3-.45-.666-.45-1.1 0-.434.15-.8.45-1.1.3-.3.667-.45 1.1-.45.433 0 .8.15 1.1.45.3.3.45.666.45 1.1 0 .434-.15.8-.45 1.1-.3.3-.667.45-1.1.45ZM0 18.5v-2c0-3.134 1.067-5.842 3.2-8.126C5.333 6.092 7.933 4.816 11 4.55V.5h2v4.05c3.067.266 5.667 1.542 7.8 3.824 2.133 2.284 3.2 4.992 3.2 8.126v2H0Zm2-2h20c0-2.766-.975-5.126-2.924-7.076C17.126 7.474 14.766 6.5 12 6.5c-2.767 0-5.125.974-7.074 2.924C2.976 11.374 2 13.734 2 16.5Zm2.15 15.7c-.433 0-.8-.15-1.1-.45-.3-.3-.45-.666-.45-1.1 0-.434.15-.8.45-1.1.3-.3.667-.45 1.1-.45.433 0 .8.15 1.1.45.3.3.45.666.45 1.1 0 .434-.15.8-.45 1.1-.3.3-.667.45-1.1.45Zm7.85 0c-.433 0-.8-.15-1.1-.45-.3-.3-.45-.666-.45-1.1 0-.434.15-.8.45-1.1.3-.3.667-.45 1.1-.45.433 0 .8.15 1.1.45.3.3.45.666.45 1.1 0 .434-.15.8-.45 1.1-.3.3-.667.45-1.1.45Zm7.85 0c-.433 0-.8-.15-1.1-.45-.3-.3-.45-.666-.45-1.1 0-.434.15-.8.45-1.1.3-.3.667-.45 1.1-.45.433 0 .8.15 1.1.45.3.3.45.666.45 1.1 0 .434-.15.8-.45 1.1-.3.3-.667.45-1.1.45Z" fill="#9C9C9C"/>
</svg>
