<svg width="30" height="33" viewBox="0 0 30 33" fill="none" xmlns="http://www.w3.org/2000/svg">
  <path d="M14 32.05v-6H0v-2h30v2H16v6h-2ZM8.25 14.6c.4 0 .75-.158 1.05-.476.3-.316.45-.674.45-1.074 0-.434-.15-.8-.45-1.1-.3-.3-.65-.45-1.05-.45-.434 0-.8.15-1.1.45-.3.3-.45.666-.45 1.1 0 .4.15.758.45 1.074.3.318.666.476 1.1.476Zm13.5 0c.434 0 .8-.158 1.1-.476.3-.316.45-.674.45-1.074 0-.434-.15-.8-.45-1.1-.3-.3-.666-.45-1.1-.45-.4 0-.75.15-1.05.45-.3.3-.45.666-.45 1.1 0 .4.15.758.45 1.074.3.318.65.476 1.05.476ZM3 9.55l3-8.6c.1-.3.258-.526.476-.676.216-.15.474-.224.774-.224h15.5c.3 0 .558.074.776.224.216.15.374.376.474.676l3 8.6v11.6a.882.882 0 0 1-.25.65.882.882 0 0 1-.65.25h-.2a.882.882 0 0 1-.65-.25.882.882 0 0 1-.25-.65v-3.1H5v3.1a.882.882 0 0 1-.25.65.882.882 0 0 1-.65.25h-.2a.882.882 0 0 1-.65-.25.882.882 0 0 1-.25-.65V9.55Zm2.6-1.5h18.8l-2.1-6H7.7l-2.1 6Zm-.6 8h20v-6H5v6Z" fill="#9C9C9C"/>
</svg>
