<svg width="36" height="33" viewBox="0 0 36 33" fill="none" xmlns="http://www.w3.org/2000/svg">
  <path d="m18 32.8-1.5-1.35c-3.266-3-5.966-5.558-8.1-7.676-2.134-2.116-3.824-3.982-5.074-5.6-1.25-1.616-2.118-3.082-2.602-4.4A11.48 11.48 0 0 1 0 9.8c0-2.534.866-4.666 2.6-6.4S6.466.8 9 .8c1.766 0 3.416.45 4.95 1.35 1.534.9 2.884 2.216 4.05 3.95 1.166-1.734 2.516-3.05 4.05-3.95A9.617 9.617 0 0 1 27 .8c2.534 0 4.666.866 6.4 2.6S36 7.266 36 9.8a11.48 11.48 0 0 1-.724 3.974c-.484 1.318-1.35 2.784-2.6 4.4-1.25 1.618-2.934 3.484-5.052 5.6-2.116 2.118-4.824 4.676-8.124 7.676L18 32.8Zm0-2.7c3.2-2.9 5.834-5.384 7.9-7.45 2.066-2.066 3.7-3.858 4.9-5.376 1.2-1.516 2.034-2.858 2.5-4.024.466-1.166.7-2.316.7-3.45 0-2-.666-3.666-2-5s-3-2-5-2c-1.6 0-3.074.458-4.424 1.374-1.35.918-2.542 2.276-3.576 4.076h-2c-1.066-1.834-2.266-3.2-3.6-4.1A7.7 7.7 0 0 0 9 2.8c-1.966 0-3.624.666-4.974 2S2 7.8 2 9.8c0 1.134.234 2.284.7 3.45.466 1.166 1.3 2.508 2.5 4.024 1.2 1.518 2.834 3.3 4.9 5.35 2.066 2.05 4.7 4.542 7.9 7.476Z" fill="#9C19E0"/>
</svg>
