<svg width="14" height="14" viewBox="0 0 14 14" fill="none" xmlns="http://www.w3.org/2000/svg"><path d="m12.938 14-4.98-4.979a5.207 5.207 0 0 1-1.375.719c-.5.173-1.028.26-1.583.26-1.389 0-2.57-.486-3.542-1.458C.486 7.569 0 6.389 0 5c0-1.389.486-2.57 1.458-3.542C2.431.486 3.611 0 5 0c1.389 0 2.57.486 3.542 1.458C9.514 2.431 10 3.611 10 5c0 .555-.087 1.083-.26 1.583-.174.5-.414.958-.719 1.375L14 12.938 12.938 14ZM5 8.5c.972 0 1.798-.34 2.479-1.021C8.159 6.799 8.5 5.972 8.5 5c0-.972-.34-1.798-1.021-2.479C6.799 1.841 5.972 1.5 5 1.5c-.972 0-1.798.34-2.479 1.021C1.841 3.201 1.5 4.028 1.5 5c0 .972.34 1.798 1.021 2.479C3.201 8.159 4.028 8.5 5 8.5Z" fill="#fff"/></svg>