<svg width="480" height="270" viewBox="0 0 480 270" xmlns="http://www.w3.org/2000/svg">
  <g fill="none" fill-rule="evenodd">
    <path fill="#F8F9FF" d="M0 0h480v270H0z"/>
    <g opacity=".5">
      <g fill="#9c19e0" fill-rule="nonzero">
        <path d="M296.999 166.694c0 .735-.227.99-.736.99-.508 0-.736-.255-.736-.99v-10.79c0-.734.228-1.218.736-1.218.509 0 .736.484.736 1.218v10.79Zm14.737 2.263a.92.92 0 1 1-1.84 0v-31.373a.92.92 0 1 1 1.84 0v31.372Z"/>
        <path d="M303.775 146.567a.92.92 0 1 1 1.198-1.397l6.442 5.522a.92.92 0 1 1-1.198 1.397l-6.442-5.522Zm13.027-5.179a.92.92 0 1 1 .913 1.598l-6.442 3.682a.92.92 0 0 1-.914-1.599l6.443-3.68Z"/>
        <path d="M311.737 157.832c-.367 0-.726-.03-1.078-.09a.92.92 0 1 1 .312-1.815 4.601 4.601 0 0 0 5.368-4.538.92.92 0 0 1 .92-.92 8.284 8.284 0 0 0 8.283-8.283c0-4.401-3.463-8.01-7.863-8.236a.92.92 0 0 1-.72-.412 7.349 7.349 0 0 0-6.142-3.316c-3.806 0-6.951 2.916-7.293 6.704a.92.92 0 0 1-.74.82 8.278 8.278 0 0 0 1.59 16.405c.43 0 .857-.036 1.276-.106a.92.92 0 0 1 .302 1.816 9.594 9.594 0 0 1-1.578.13 10.12 10.12 0 0 1-2.598-19.902c.72-4.4 4.506-7.708 9.042-7.708a9.182 9.182 0 0 1 7.414 3.764c5.155.496 9.152 4.81 9.152 10.041 0 5.301-4.076 9.651-9.264 10.088a6.443 6.443 0 0 1-6.382 5.558Z"/>
        <path d="M296.551 135.745c1.437 0 2.793.49 3.93 1.374a.92.92 0 0 1-.118 1.53c-2.619 1.457-4.273 4.19-4.273 7.22 0 3.07 1.708 5.828 4.398 7.269a.92.92 0 0 1 .281 1.39 4.61 4.61 0 0 1-4.37 1.67.92.92 0 1 1 .318-1.813 2.725 2.725 0 0 0 1.792-.311c-2.633-1.871-4.26-4.888-4.26-8.205 0-3.178 1.824-6.484 4.26-8.37-.514-.203-1.396-.834-1.958-.834-2.42 0-5.334 2.426-5.552 4.834-.037.408-.423.422-.825.5-2.473.482-4.175 3.324-4.175 5.872 0 2.93 3.07 6.128 6 6.128.509 0 .701 1.02.193 1.02a7.147 7.147 0 0 1-7.146-7.148 7.143 7.143 0 0 1 5.128-6.851c.586-3.024 3.226-5.275 6.377-5.275Z"/>
      </g>
      <g fill="#9c19e0" fill-rule="nonzero">
        <path d="M175.594 166.174a.601.601 0 1 1-1.203 0v-4.883a.601.601 0 0 1 1.203 0v4.882Zm9.321 3.36a.601.601 0 0 1-1.203 0v-19.845a.601.601 0 0 1 1.203 0v19.845Z"/>
        <path d="M179.713 155.558a.601.601 0 1 1 .782-.913l4.21 3.608a.601.601 0 1 1-.783.913l-4.21-3.608Zm8.512-3.384a.601.601 0 0 1 .597 1.044l-4.21 2.406a.602.602 0 0 1-.597-1.045l4.21-2.405Z"/>
        <path d="M184.915 162.919c-.239 0-.474-.02-.704-.06a.601.601 0 1 1 .204-1.185 3.007 3.007 0 0 0 3.508-2.965.6.6 0 0 1 .6-.601 5.413 5.413 0 0 0 5.413-5.413c0-2.875-2.263-5.233-5.138-5.381a.601.601 0 0 1-.47-.27 4.802 4.802 0 0 0-4.014-2.166c-2.486 0-4.542 1.905-4.765 4.38a.601.601 0 0 1-.484.536 5.41 5.41 0 0 0 1.04 10.72c.28 0 .559-.024.833-.07a.602.602 0 0 1 .198 1.187 6.27 6.27 0 0 1-1.031.085 6.612 6.612 0 0 1-1.698-13.005c.47-2.875 2.943-5.037 5.907-5.037a6 6 0 0 1 4.845 2.46c3.368.323 5.98 3.142 5.98 6.56a6.616 6.616 0 0 1-6.053 6.592 4.21 4.21 0 0 1-4.17 3.632Z"/>
        <path d="M174.992 148.487c.94 0 1.826.32 2.568.897.34.265.3.79-.077 1a5.39 5.39 0 0 0-2.791 4.718c0 2.006 1.116 3.808 2.873 4.75.333.178.42.614.184.908a3.013 3.013 0 0 1-2.856 1.09.601.601 0 0 1 .208-1.184 1.78 1.78 0 0 0 1.171-.203 6.565 6.565 0 0 1-.22-10.572 2.875 2.875 0 0 0-1.06-.202 3.048 3.048 0 0 0-3.03 2.786.601.601 0 0 1-.483.536 3.464 3.464 0 0 0 .665 6.867.601.601 0 1 1 0 1.202 4.67 4.67 0 0 1-1.318-9.147 4.248 4.248 0 0 1 4.166-3.446Z"/>
      </g>
      <path d="M151 169.889h177.257" stroke="#9c19e0" stroke-width="2" stroke-linecap="round"/>
      <g fill="#9c19e0" fill-rule="nonzero">
        <path d="m220.335 170.333 39.12-.444v-28.896a.89.89 0 1 0-1.778 0v28.45h-35.564v-28.45a.89.89 0 0 0-1.778 0v29.34Z"/>
        <path d="m214.74 147.845 25.784-25.784h-1.258l25.784 25.784a.89.89 0 0 0 1.258-1.258l-25.784-25.784a.89.89 0 0 0-1.258 0l-25.783 25.784a.89.89 0 0 0 1.257 1.258Z"/>
      </g>
      <g stroke="#9c19e0" stroke-linecap="round">
        <path d="M211.677 108.868a7.449 7.449 0 1 1-14.898-.001 7.449 7.449 0 0 1 14.898.001h0Z" stroke-width="1.25"/>
        <path d="M213.637 108.868h1.568m-10.977-9.408v-1.568m-9.408 10.976h-1.568m10.976 9.409v1.568m6.653-17.629 1.109-1.109m-14.414 1.109-1.109-1.109m1.109 14.414-1.109 1.109m14.414-1.109 1.109 1.109"/>
      </g>
      <path stroke="#9c19e0" d="M234.5 154.5h11V170h-11z"/>
      <path d="M283.5 114c.205-1.156.705-1.99 1.5-2.5s2.045-.266 3.75.734c.75-1.35 1.666-1.928 2.75-1.734 1.084.194 1.917.694 2.5 1.5" stroke="#9c19e0" stroke-width=".5" stroke-linecap="round"/>
      <path d="M266.264 106.516c.534-1.046 1.256-1.697 2.166-1.952.91-.256 2.033.343 3.371 1.798 1.111-1.072 2.157-1.357 3.137-.854.98.502 1.63 1.224 1.952 2.165" stroke="#9c19e0" stroke-linecap="round"/>
    </g>
  </g>
</svg>
