<svg width="463" height="452" viewBox="0 0 463 452" fill="none" xmlns="http://www.w3.org/2000/svg"><g clip-path="url(#a)"><path d="M231.496 434.603c120.012 0 217.301-97.289 217.301-217.301C448.797 97.289 351.508 0 231.496 0 111.483 0 14.194 97.29 14.194 217.302c0 120.012 97.289 217.301 217.302 217.301Z" fill="url(#b)"/><path d="M115.845 176.746c10.723-10.723 10.723-28.109 0-38.832-10.723-10.723-28.108-10.723-38.832 0-10.723 10.723-10.723 28.109 0 38.832 10.724 10.723 28.109 10.723 38.832 0Z" fill="#9C19E0"/><path d="M89.973 162.817a.977.977 0 0 1 .738-.151.998.998 0 0 1 .628.417l5.125 7.612 11.892-16.225a.987.987 0 0 1 1.377-.211.984.984 0 0 1 .211 1.378l-12.53 17.088v64.272a.985.985 0 0 1-1.97 0v-64.289l-5.736-8.525a.984.984 0 0 1 .265-1.366Z" fill="#B9B9B9" fill-opacity=".5"/><path d="M256.743 170.764c12.777-12.778 12.777-33.494 0-46.271-12.778-12.777-33.494-12.777-46.271 0-12.778 12.777-12.778 33.493 0 46.271 12.777 12.777 33.493 12.777 46.271 0Z" fill="#9C19E0"/><path d="M240.064 153.115a.99.99 0 0 0-.738-.15.983.983 0 0 0-.628.417l-5.124 7.611-11.893-16.225a.99.99 0 0 0-1.378-.21.986.986 0 0 0-.21 1.377l12.53 17.095v73.618a.984.984 0 0 0 1.681.697.985.985 0 0 0 .289-.697v-73.641l5.738-8.525a.985.985 0 0 0-.267-1.367Z" fill="#B9B9B9" fill-opacity=".5"/><path d="M258.649 399.19a83.14 83.14 0 0 1-2.675-15.922h.025c.258-7.045.987-12.151.987-12.151.375-2.719.576-5.458.603-8.202.172-1.242.235-2.497.188-3.75a63.306 63.306 0 0 0-2.815-15.91c-3.426-12.407-8.98-20.367-8.98-20.367l-7.226-9.166-18.049-28.025c-3.616-4.719-8.645-.795-8.645-.795-9.59 7.958-3.448 18.833-.71 22.746l5.695 8.364-29.78-4.819c-7.5.857-7.525 10.592-7.525 10.592-2.383 8.858 5.667 41.49 5.667 41.49 1.025 2.35 3.123 6.833 4.86 8.5l-.043-.01c4.688 4.565 11.153 9.958 18.788 13.963.94.454 1.478.699 1.478.699a9.82 9.82 0 0 1 1.345.693c2.655 1.583 8.59 6.237 11.82 17.462l1.922 8 9.167-2.387 3.54-.922 4.815-1.251 16.878-4.392-1.33-4.44Z" fill="#F48E8C"/><path d="m279.154 451.422-12.52-39.36-42.465 11.048 5.954 28.312h49.031Z" fill="#394C8D"/><path d="m234.756 410.183 3.54-.921 4.815-1.254 18.595-4.836 3.16 9.35-38.519 10.021-2.48-9.526 10.889-2.834Z" fill="#B9B9B9" fill-opacity=".5"/><path d="m199.161 283.768-4.563-15.376c-.047-.157-.362-.204-.7-.104l-9.537 2.834c-.333.1-.577.311-.53.468l4.563 15.375 10.767-3.197Z" fill="#E8E8E8" fill-opacity=".88"/><path d="M154.449 144.485c-35.756 10.615-56.138 48.205-45.523 83.962 10.615 35.756 48.203 56.138 83.96 45.523 35.757-10.615 56.138-48.203 45.525-83.96-10.613-35.757-48.203-56.138-83.962-45.525Zm37.062 124.855c-33.199 9.855-68.1-9.068-77.955-42.268-9.855-33.2 9.068-68.102 42.268-77.957 33.2-9.855 68.102 9.07 77.957 42.27 9.855 33.2-9.073 68.102-42.27 77.955Z" fill="#414042"/><path d="m182.343 288.762 22.865-6.79a1.667 1.667 0 0 1 2.071 1.123l27.549 92.807a1.667 1.667 0 0 1-1.124 2.071l-22.871 6.789a1.67 1.67 0 0 1-2.072-1.124l-27.548-92.805a1.661 1.661 0 0 1 1.13-2.071Z" fill="#231F20"/><path d="M209.406 358.437c-1.153-4.649-4.135-4.385-4.135-4.385l-20.897 2.383s-2.916.742-3.288 2.877l.265 3.736c.003.901.067 1.801.192 2.694 0 .026 0 .053.011.08.089.551.802 3.91 5.309 5.435 1.025.29 2.075.485 3.136.581l11.045-2.666 4.862-1.544c5.327-2.383 3.5-9.191 3.5-9.191Z" fill="#F69D98"/><path d="M205.897 367.623c2.257-1 3.232-2.805 3.605-4.546a8.915 8.915 0 0 1-5.346 2.921l-14.45 3.755s-5.289.649-7.617-2.345c.633 1.25 1.968 2.902 4.765 3.849 1.025.29 2.075.485 3.137.581l11.045-2.666 4.861-1.549Z" fill="#F48E8C"/><path d="m178.059 339.84 25.09-1.937s4.43.09 5.472 5.244l.291 5.306s-.193 4.447-4 5.432l-23.01 3.485s-4.106.725-5.271-1.595c0 0-2.567-6.79-1.452-13.333-.007-.004 1.295-2.48 2.88-2.602Z" fill="#F69D98"/><path d="M208.892 348.105c-.538 1.278-1.608 2.743-3.726 3.267l-24.43 3.561s-2.817.477-4.56-.54c.256.874.448 1.382.448 1.382 1.167 2.32 5.272 1.595 5.272 1.595l23.01-3.478c3.813-.985 4-5.432 4-5.432l-.014-.355Z" fill="#F48E8C"/><path d="m178.974 320.765 24 .902s3.333.825 4.088 6.043c0 0 1.255 8.958-2.883 10.298l-28.293 2.834s-3.419.18-5.022-6.869l-.478-6.958s.273-7.063 8.588-6.25Z" fill="#F69D98"/><path d="m205.526 335.438-30.5 2.987s-1.905.102-3.603-2.46c1.723 5.022 4.461 4.878 4.461 4.878l28.294-2.833c1.373-.445 2.151-1.727 2.58-3.242a3.516 3.516 0 0 1-1.232.67Z" fill="#F48E8C"/><path d="m176.359 303.37 24.323 3.522s4.205 1.033 4.107 6.166l-.845 5.115s-1.125 4.194-4.968 4.317l-22.667-1.602s-4.067-.188-4.685-2.646c0 0-1.01-7.015 1.438-13.014-.005-.003 1.759-2.081 3.297-1.858Z" fill="#F69D98"/><path d="M204.001 317.837c-.785 1.101-2.115 2.27-4.245 2.313l-24.04-1.833s-2.787-.149-4.232-1.489c.058.885.135 1.41.135 1.41.618 2.459 4.685 2.647 4.685 2.647l22.667 1.602c3.843-.124 4.968-4.317 4.968-4.317l.062-.333Z" fill="#F48E8C"/><path d="M231.424 383.182s7.138 23.591 18.333 18.38c0 0 5.667-3.779 6.654-13.85a82.447 82.447 0 0 1-.43-4.444h.025c.258-7.045.986-12.151.986-12.151.375-2.719.577-5.458.604-8.202.171-1.242.234-2.497.188-3.75a63.306 63.306 0 0 0-2.815-15.91c-3.427-12.407-8.98-20.367-8.98-20.367l-7.227-9.166-18.055-28.025c-3.616-4.719-8.645-.795-8.645-.795-9.59 7.958-3.448 18.833-.71 22.746l5.695 8.364s6.45 7.583 12.304 19.756l-.092 11.234s-2.755 18.905 1.063 31.978l1.107 4.202h-.005Z" fill="#F69D98"/><path d="M210.718 293.345s-2.519 8.138 2.706 17.353l-2.076-3.05c-2.739-3.913-8.88-14.788.71-22.746 0 0 5.028-3.924 8.645.795.005 0-6.725-2.722-9.985 7.648Z" fill="#F48E8C"/><path d="m246.566 451.422-9.413-31.689-12.984 3.377 5.954 28.312h16.443Z" fill="#39428A"/><path d="m226.347 422.543 10.805-2.81-3-9.393-10.285 2.677 2.48 9.526Zm-48.52-229.735h-51.891v44.922h51.891v-44.922Z" fill="#E8E8E8" fill-opacity=".88"/><path d="M122.654 192.808h55.175l19.474-26.996h-55.175l-19.474 26.996Z" fill="#9C19E0"/><path d="m216.776 192.808-19.474-26.996-.951 1.32 18.52 25.676h1.905Z" fill="#36478A"/><path d="M177.829 192.808v44.922h37.042v-44.922l-18.52-25.676-18.522 25.676Z" fill="#E8E8E8" fill-opacity=".88"/><path d="M132.733 217.722h16.079v-16.08h-16.079v16.08Z" fill="#9C19E0"/><path d="M147.779 216.69v-14.015h-15.048v-1.033h16.082v16.08h-1.034v-1.032Z" fill="#36478A"/><path d="M141.289 201.642h-1.033v16.08h1.033v-16.08Z" fill="#36478A"/><path d="M148.811 209.165h-16.08v1.033h16.08v-1.033Z" fill="#36478A"/><path d="M188.311 217.722h16.08v-16.08h-16.08v16.08Z" fill="#9C19E0"/><path d="M203.357 216.69v-14.015h-15.048v-1.033h16.082v16.08h-1.034v-1.032Z" fill="#36478A"/><path d="M196.868 201.642h-1.034v16.08h1.034v-16.08Z" fill="#36478A"/><path d="M204.389 209.165h-16.08v1.033h16.08v-1.033Z" fill="#36478A"/><path d="M155.804 237.732h14.513V208.36h-14.513v29.372Z" fill="#9C19E0"/><path d="M169.148 209.445h-13.342v-1.087h14.513v29.372h-1.171v-28.285Z" fill="#36478A"/><path d="M177.827 192.808h-51.891v1.162h51.891v-1.162Z" fill="#E8E8E8" fill-opacity=".88"/><path d="m196.351 167.132-18.522 25.676v1.162l18.937-26.263-.415-.575Z" fill="#B9B9B9" fill-opacity=".5"/><path d="M168.357 222.752h-2.23a.096.096 0 0 0-.096.096v.392c0 .053.043.097.096.097h2.23a.097.097 0 0 0 .097-.097v-.392a.096.096 0 0 0-.097-.096Z" fill="#36478A"/><path d="M135.738 237.632a7.885 7.885 0 0 0 .751-8.254 7.884 7.884 0 0 0-7.049-4.359 7.878 7.878 0 0 0-6.297 12.613h12.595Zm88.033 0a11.689 11.689 0 0 0 1.112-12.247 11.686 11.686 0 0 0-16.608-4.72 11.677 11.677 0 0 0-4.311 4.72 11.689 11.689 0 0 0 1.112 12.247h18.695Z" fill="#98D09E"/><path d="M209.708 237.632a6.913 6.913 0 0 0-1.892-10.039 6.917 6.917 0 0 0-9.167 10.039h11.059Z" fill="#79C89F"/><path d="m194.411 169.818.218-.301h-5.941l2.666-3.705h-.371l-2.667 3.705h-5.758l2.666-3.705h-.373l-2.667 3.705h-5.756l2.666-3.705h-.371l-2.667 3.705h-5.758l2.666-3.705h-.373l-2.667 3.705h-5.758l2.667-3.705h-.374l-2.666 3.705h-5.752l2.667-3.705h-.374l-2.666 3.705h-5.759l2.667-3.705h-.368l-2.667 3.705h-5.77l2.667-3.705h-.374l-2.666 3.705h-5.944l-.218.301h5.945l-2.565 3.555h-5.943l-.219.304h5.945l-2.565 3.548h-5.943l-.218.303h5.943l-2.563 3.554h-5.945l-.217.303h5.943l-2.563 3.553h-5.945l-.217.304h5.944l-2.564 3.553h-5.948l-.218.303h5.945l-2.667 3.705h.373l2.667-3.705h5.757l-2.667 3.705h.372l2.666-3.705h5.772l-2.667 3.705h.374l2.666-3.705h5.757l-2.667 3.705h.372l2.667-3.705h5.758l-2.667 3.705h.374l2.666-3.705h5.757l-2.667 3.705h.372l2.667-3.705h5.758l-2.667 3.705h.374l2.666-3.705h5.757l-2.667 3.705h.374l2.666-3.705h5.942l.218-.303h-5.941l2.563-3.553h5.942l.218-.304h-5.942l2.564-3.553h5.943l.217-.303h-5.947l2.563-3.554h5.944l.218-.303h-5.943l2.565-3.553h5.941l.219-.304h-5.944l2.565-3.555 5.942.005Zm-18.203 0h5.758l-2.565 3.555h-5.758l2.565-3.555Zm-17.834 7.715h5.757l-2.563 3.554h-5.759l2.565-3.554Zm-2.936 3.554h-5.75l2.563-3.554h5.758l-2.571 3.554Zm9.066-3.554h5.759l-2.555 3.554h-5.757l2.553-3.554Zm.219-.303 2.563-3.553h5.758l-2.555 3.548-5.766.005Zm-.374 0h-5.758l2.565-3.553h5.758l-2.565 3.553Zm-6.13 0h-5.758l2.563-3.553h5.759l-2.564 3.553Zm-6.131 0h-5.75l2.565-3.553h5.758l-2.573 3.553Zm-.219.303-2.563 3.554h-5.75l2.565-3.554h5.748Zm-2.773 3.859-2.555 3.551h-5.767l2.564-3.551h5.758Zm.373 0h5.759l-2.565 3.553h-5.757l2.563-3.553Zm6.13 0h5.759l-2.564 3.553h-5.753l2.558-3.553Zm6.132 0h5.757l-2.564 3.553h-5.756l2.563-3.553Zm6.13 0h5.758l-2.563 3.553h-5.758l2.563-3.553Zm.218-.304 2.564-3.553h5.758l-2.563 3.553h-5.759Zm2.782-3.856 2.565-3.554h5.757l-2.564 3.547-5.758.007Zm-.785-7.412h5.758l-2.563 3.555h-5.758l2.563-3.555Zm-6.13 0h5.762l-2.565 3.555h-5.757l2.56-3.555Zm-6.132 0h5.759l-2.564 3.555h-5.758l2.563-3.555Zm-6.13 0h5.759l-2.569 3.553h-5.753l2.563-3.553Zm-6.131 0h5.758l-2.563 3.555h-5.759l2.564-3.555Zm-2.782 3.858h5.758l-2.563 3.547h-5.758l2.563-3.547Zm-2.782 3.857h5.759l-2.564 3.553h-5.758l2.563-3.553Zm-2.781 3.857h5.758l-2.565 3.553h-5.757l2.564-3.553Zm.411 7.41h-5.756l2.563-3.554h5.758l-2.565 3.554Zm6.132 0h-5.758l2.563-3.554h5.758l-2.563 3.554Zm6.13 0h-5.758l2.565-3.554h5.758l-2.565 3.554Zm6.132 0h-5.759l2.564-3.554h5.758l-2.563 3.554Zm6.13 0h-5.759l2.565-3.554h5.759l-2.565 3.554Zm6.131 0h-5.758l2.563-3.554h5.759l-2.564 3.554Zm6.13 0h-5.758l2.565-3.554h5.757l-2.564 3.554Zm2.782-3.857h-5.757l2.564-3.553h5.756l-2.563 3.553Zm2.782-3.857h-5.76l2.563-3.553h5.77l-2.573 3.553Zm2.783-3.856h-5.758l2.563-3.554h5.758l-2.563 3.554Zm2.782-3.857h-5.759l2.564-3.555h5.758l-2.563 3.555Z" fill="#fff" style="mix-blend-mode:soft-light"/><path d="M152.357 161.34v12.088l4.585-5.668v-6.42h-4.585Z" fill="#36478A"/><path d="M152.357 161.34h-6.836v12.088h6.836V161.34Z" fill="#9C19E0"/><path d="M56.266 192.808H4.374v44.922h51.892v-44.922Z" fill="#E8E8E8" fill-opacity=".88"/><path d="M1.09 192.808h55.176l19.473-26.996H20.564L1.091 192.808Z" fill="#B9B9B9" fill-opacity=".5"/><path d="m95.213 192.808-19.474-26.996-.951 1.32 18.521 25.676h1.904Z" fill="#B9B9B9" fill-opacity=".5"/><path d="M56.266 192.808v44.922h37.043v-44.922l-18.522-25.676-18.521 25.676Z" fill="#E8E8E8" fill-opacity=".88"/><path d="M11.17 217.722h16.08v-16.08H11.17v16.08Z" fill="#B9B9B9" fill-opacity=".5"/><path d="M26.218 216.69v-14.015H11.169v-1.033h16.08v16.08h-1.031v-1.032Z" fill="#B9B9B9" fill-opacity=".5"/><path d="M19.726 201.642h-1.034v16.08h1.034v-16.08Z" fill="#B9B9B9" fill-opacity=".5"/><path d="M27.25 209.165H11.17v1.033h16.08v-1.033Zm39.497 8.557h16.08v-16.08h-16.08v16.08Z" fill="#B9B9B9" fill-opacity=".5"/><path d="M81.794 216.69v-14.015H66.748v-1.033h16.08v16.08h-1.034v-1.032Z" fill="#B9B9B9" fill-opacity=".5"/><path d="M75.304 201.642h-1.033v16.08h1.033v-16.08Z" fill="#B9B9B9" fill-opacity=".5"/><path d="M82.828 209.165h-16.08v1.033h16.08v-1.033Zm-48.584 28.567h14.514V208.36H34.244v29.372Z" fill="#B9B9B9" fill-opacity=".5"/><path d="M47.586 209.445H34.242v-1.087h14.514v29.372h-1.17v-28.285Z" fill="#B9B9B9" fill-opacity=".5"/><path d="M56.266 192.808H4.374v1.162h51.892v-1.162Z" fill="#E8E8E8" fill-opacity=".88"/><path d="m74.787 167.132-18.521 25.676v1.162l18.937-26.263-.416-.575Zm-27.991 55.62h-2.23a.096.096 0 0 0-.097.096v.392c0 .053.044.097.097.097h2.23a.097.097 0 0 0 .097-.097v-.392a.096.096 0 0 0-.097-.096Zm-32.62 14.88a7.878 7.878 0 1 0-12.595 0h12.595Zm88.032 0a11.698 11.698 0 0 0 1.114-12.25 11.69 11.69 0 0 0-10.462-6.469 11.69 11.69 0 0 0-11.645 12.752c.197 2.164.992 4.23 2.298 5.967h18.695Z" fill="#B9B9B9" fill-opacity=".5"/><path d="M88.15 237.632a6.915 6.915 0 1 0-11.056 0h11.057Z" fill="#E8E8E8" fill-opacity=".88"/><path d="m72.85 169.818.218-.301h-5.944l2.667-3.705h-.367l-2.667 3.705h-5.763l2.667-3.705h-.372l-2.666 3.705h-5.76l2.666-3.705h-.373l-2.667 3.705h-5.756l2.666-3.705h-.358l-2.667 3.705h-5.773l2.666-3.705h-.373l-2.666 3.705H36.47l2.667-3.705h-.374l-2.667 3.705H30.34l2.667-3.705h-.373l-2.667 3.705h-5.759l2.667-3.705h-.373l-2.667 3.705h-5.942l-.218.301h5.944l-2.564 3.555H15.11l-.216.304h5.943l-2.563 3.548h-5.945l-.219.303h5.945l-2.563 3.554H9.54l-.219.303h5.946l-2.56 3.558H6.763l-.218.304h5.945L9.928 188.8h-5.24l-.694-.017-.23.32h5.943l-2.666 3.705h.373l2.667-3.705h5.758l-2.667 3.705h.369l2.666-3.705h5.759l-2.667 3.705h.372l2.666-3.705h5.759l-2.667 3.705h.373l2.667-3.705h5.757l-2.667 3.705h.372l2.666-3.705h5.759l-2.667 3.705h.373l2.667-3.705h5.757l-2.667 3.705h.372l2.666-3.705h5.767l-2.666 3.705h.373l2.666-3.705h5.942l.218-.303h-5.95l2.566-3.553h5.941l.218-.304h-5.934l2.563-3.551h5.941l.219-.304h-5.942l2.563-3.553h5.942l.218-.303h-5.941l2.563-3.554h5.944l.216-.303h-5.942l2.564-3.555 5.943-.002Zm-18.206 0h5.759l-2.564 3.555h-5.758l2.563-3.555Zm-17.825 7.715h5.758l-2.563 3.554h-5.758l2.563-3.554Zm-2.937 3.554h-5.758l2.565-3.554h5.757l-2.563 3.554Zm9.069-3.554h5.757l-2.564 3.554h-5.758l2.565-3.554Zm.216-.303 2.566-3.553h5.756l-2.563 3.548-5.759.005Zm-.371 0H37.04l2.563-3.553h5.758l-2.566 3.553Zm-6.132 0h-5.757l2.564-3.553h5.758l-2.565 3.553Zm-6.123-.005h-5.765l2.563-3.553h5.758l-2.556 3.553Zm-.218.303-2.564 3.554h-5.765l2.564-3.554h5.765Zm-2.782 3.864-2.564 3.553h-5.77l2.569-3.553h5.765Zm.372 0h5.758l-2.563 3.553h-5.765l2.57-3.553Zm6.131 0h5.759l-2.564 3.553h-5.765l2.57-3.553Zm6.13 0h5.758l-2.563 3.553h-5.765l2.57-3.553Zm6.132 0h5.752l-2.566 3.553h-5.756l2.57-3.553Zm.218-.304 2.563-3.553h5.759l-2.565 3.553h-5.757Zm2.775-3.863 2.563-3.553h5.759l-2.564 3.553H49.3Zm-.785-7.412h5.758l-2.564 3.56H45.95l2.563-3.56Zm-6.13 0h5.757l-2.563 3.555h-5.759l2.565-3.555Zm-6.132 0h5.759l-2.565 3.555h-5.757l2.563-3.555Zm-6.13 0h5.752l-2.563 3.555h-5.753l2.564-3.555Zm-6.131 0h5.758l-2.563 3.555h-5.759l2.564-3.555Zm-2.784 3.864h5.759l-2.564 3.548h-5.756l2.561-3.548Zm-2.781 3.856h5.757l-2.564 3.554h-5.756l2.563-3.554Zm-2.78 3.859h5.756l-2.563 3.553h-5.758l2.565-3.553Zm.412 7.41h-5.759l2.565-3.554h5.757l-2.563 3.554Zm6.13 0H16.43l2.563-3.554h5.759l-2.566 3.554Zm6.131 0h-5.758l2.563-3.554h5.759l-2.564 3.554Zm6.13 0h-5.756l2.563-3.554h5.758l-2.565 3.554Zm6.132 0h-5.759l2.564-3.554h5.758l-2.563 3.554Zm6.13 0h-5.758l2.564-3.554h5.759l-2.565 3.554Zm6.132 0h-5.759l2.563-3.554h5.759l-2.563 3.554Zm2.781-3.857h-5.75l2.555-3.553h5.758l-2.563 3.553Zm2.782-3.857h-5.758l2.56-3.555h5.758l-2.56 3.555Zm2.782-3.863h-5.759l2.565-3.553h5.757l-2.563 3.553Zm2.781-3.857h-5.761l2.563-3.555h5.77l-2.572 3.555Z" fill="#fff" style="mix-blend-mode:soft-light"/><path d="M30.796 161.34v12.088l4.585-5.668v-6.42h-4.585Zm0 0h-6.837v12.088h6.837V161.34Z" fill="#B9B9B9" fill-opacity=".5"/><path d="M300.601 192.808h-51.892v44.922h51.892v-44.922Z" fill="#E8E8E8" fill-opacity=".88"/><path d="M245.426 192.808h55.175l19.473-26.996h-55.175l-19.473 26.996Zm94.122 0-19.474-26.996-.951 1.32 18.521 25.676h1.904Z" fill="#B9B9B9" fill-opacity=".5"/><path d="M300.601 192.808v44.922h37.043v-44.922l-18.522-25.676-18.521 25.676Z" fill="#E8E8E8" fill-opacity=".88"/><path d="M255.504 217.722h16.08v-16.08h-16.08v16.08Z" fill="#B9B9B9" fill-opacity=".5"/><path d="M270.551 216.69v-14.015h-15.047v-1.033h16.08v16.08h-1.033v-1.032Z" fill="#B9B9B9" fill-opacity=".5"/><path d="M264.061 201.642h-1.033v16.08h1.033v-16.08Z" fill="#B9B9B9" fill-opacity=".5"/><path d="M271.584 209.165h-16.08v1.033h16.08v-1.033Zm39.499 8.557h16.08v-16.08h-16.08v16.08Z" fill="#B9B9B9" fill-opacity=".5"/><path d="M326.129 216.69v-14.015h-15.046v-1.033h16.08v16.08h-1.034v-1.032Z" fill="#B9B9B9" fill-opacity=".5"/><path d="M319.639 201.642h-1.033v16.08h1.033v-16.08Z" fill="#B9B9B9" fill-opacity=".5"/><path d="M327.163 209.165h-16.08v1.033h16.08v-1.033Zm-48.586 28.567h14.514V208.36h-14.514v29.372Z" fill="#B9B9B9" fill-opacity=".5"/><path d="M291.919 209.445h-13.342v-1.087h14.514v29.372h-1.172v-28.285Z" fill="#B9B9B9" fill-opacity=".5"/><path d="M300.601 192.808h-51.892v1.162h51.892v-1.162Z" fill="#E8E8E8" fill-opacity=".88"/><path d="m319.122 167.132-18.521 25.676v1.162l18.936-26.263-.415-.575Zm-27.991 55.62h-2.23a.096.096 0 0 0-.097.096v.392c0 .053.043.097.097.097h2.23a.098.098 0 0 0 .097-.097v-.392a.097.097 0 0 0-.097-.096Zm-32.62 14.88a7.876 7.876 0 0 0 .751-8.254 7.884 7.884 0 0 0-7.049-4.359 7.875 7.875 0 0 0-7.048 4.359 7.878 7.878 0 0 0 .751 8.254h12.595Zm88.03 0a11.7 11.7 0 0 0 1.114-12.25 11.69 11.69 0 0 0-10.462-6.469 11.692 11.692 0 0 0-9.347 18.719h18.695Z" fill="#B9B9B9" fill-opacity=".5"/><path d="M332.486 237.632a6.91 6.91 0 0 0 .658-7.244 6.919 6.919 0 0 0-6.187-3.825 6.918 6.918 0 0 0-6.186 3.825 6.916 6.916 0 0 0 .658 7.244h11.057Z" fill="#E8E8E8" fill-opacity=".88"/><path d="m317.184 169.818.217-.301h-5.942l2.667-3.705h-.374l-2.666 3.705h-5.757l2.667-3.705h-.372l-2.667 3.705h-5.758l2.667-3.705h-.374l-2.666 3.705h-5.757l2.667-3.705h-.362l-2.667 3.705h-5.758l2.667-3.705h-.374l-2.666 3.705h-5.759l2.667-3.705h-.372l-2.666 3.705h-5.772l2.667-3.705h-.374l-2.666 3.705h-5.76l2.666-3.705h-.373l-2.667 3.705h-5.943l-.218.301h5.943l-2.563 3.555h-5.945l-.219.304h5.945l-2.56 3.548h-5.945l-.218.303h5.945l-2.563 3.554h-5.952l-.218.303h5.945l-2.56 3.558h-5.945l-.219.304h5.945l-2.565 3.553h-5.238l-.693-.017-.23.32h5.945l-2.667 3.705h.372l2.666-3.705h5.759l-2.667 3.705h.37l2.667-3.705h5.756l-2.666 3.705h.371l2.667-3.705h5.758l-2.666 3.705h.373l2.667-3.705h5.756l-2.666 3.705h.371l2.667-3.705h5.758l-2.666 3.705h.373l2.667-3.705h5.758l-2.667 3.705h.374l2.666-3.705h5.759l-2.667 3.705h.373l2.667-3.705h5.943l.219-.303h-5.944l2.565-3.553h5.942l.218-.304h-5.943l2.565-3.553h5.942l.218-.303h-5.943l2.565-3.554h5.941l.219-.303h-5.942l2.563-3.553h5.942l.218-.304h-5.941l2.563-3.555h5.95Zm-18.205 0h5.758l-2.563 3.555h-5.758l2.563-3.555Zm-17.833 7.715h5.758l-2.565 3.554h-5.748l2.555-3.554Zm-2.937 3.554h-5.758l2.565-3.554h5.756l-2.563 3.554Zm9.067-3.554h5.765l-2.564 3.554h-5.758l2.557-3.554Zm.218-.303 2.565-3.553h5.757l-2.555 3.548-5.767.005Zm-.372 0h-5.748l2.563-3.553h5.759l-2.574 3.553Zm-6.131 0h-5.75l2.565-3.553h5.756l-2.571 3.553Zm-6.13 0h-5.759l2.564-3.553h5.758l-2.563 3.553Zm-.219.303-2.565 3.554h-5.756l2.563-3.554h5.758Zm-2.768 3.859-2.565 3.553h-5.768l2.563-3.553h5.77Zm.372 0h5.758l-2.563 3.553h-5.759l2.564-3.553Zm6.131 0h5.759l-2.565 3.553h-5.757l2.563-3.553Zm6.13 0h5.759l-2.564 3.553h-5.758l2.563-3.553Zm6.132 0h5.757l-2.564 3.553h-5.758l2.565-3.553Zm.218-.304 2.564-3.553h5.758l-2.565 3.553h-5.757Zm2.782-3.856 2.563-3.554h5.759l-2.57 3.547-5.752.007Zm-.785-7.412h5.758l-2.571 3.553h-5.759l2.572-3.553Zm-6.132 0h5.759l-2.564 3.555h-5.758l2.563-3.555Zm-6.13 0h5.759l-2.565 3.555h-5.762l2.568-3.555Zm-6.131 0h5.746l-2.563 3.555h-5.758l2.575-3.555Zm-6.13 0h5.758l-2.565 3.555h-5.757l2.564-3.555Zm-2.79 3.857h5.758l-2.562 3.548h-5.758l2.562-3.548Zm-2.782 3.856h5.757l-2.564 3.554h-5.758l2.565-3.554Zm-2.783 3.857h5.758l-2.563 3.553h-5.759l2.564-3.553Zm.413 7.41h-5.758l2.563-3.553h5.758l-2.563 3.553Zm6.13 0h-5.758l2.565-3.553h5.758l-2.565 3.553Zm6.132 0h-5.759l2.564-3.553h5.758l-2.563 3.553Zm6.13 0h-5.759l2.565-3.553h5.759l-2.565 3.553Zm6.131 0h-5.755l2.564-3.553h5.758l-2.567 3.553Zm6.13 0h-5.758l2.565-3.553h5.757l-2.564 3.553Zm6.132 0h-5.758l2.563-3.553h5.758l-2.563 3.553Zm2.782-3.857h-5.749l2.564-3.553h5.758l-2.573 3.553Zm2.781-3.856h-5.758l2.563-3.554h5.759l-2.564 3.554Zm2.782-3.857h-5.758l2.565-3.553h5.756l-2.563 3.553Zm2.782-3.857h-5.76l2.565-3.555h5.768l-2.573 3.555Z" fill="#fff" style="mix-blend-mode:soft-light"/><path d="M275.131 161.34v12.088l4.585-5.668v-6.42h-4.585Zm0 0h-6.837v12.088h6.837V161.34Z" fill="#B9B9B9" fill-opacity=".5"/><path d="M229.183 180.048a62.624 62.624 0 0 0-27.86-27.096 32.735 32.735 0 0 0 27.86 27.096Z" fill="#9C19E0"/><path d="M233.781 191.392a56.349 56.349 0 0 0-1.167-3.517v42.727c.774-2.13 1.432-4.3 1.97-6.5v-29.71c-.239-1-.506-2-.803-3Z" fill="#36478A"/><path d="M233.781 191.392c-9.855-33.2-44.759-52.125-77.957-42.27-33.198 9.855-52.117 44.751-42.268 77.95 9.848 33.198 44.756 52.123 77.955 42.268 33.198-9.855 52.125-44.757 42.27-77.948Zm-43.06 75.283c-31.727 9.418-65.082-8.667-74.5-40.395-9.419-31.728 8.666-65.08 40.395-74.5 31.728-9.42 65.081 8.667 74.5 40.393 9.418 31.727-8.669 65.084-40.395 74.502Z" fill="#E8E8E8" fill-opacity=".88" style="mix-blend-mode:soft-light"/><path d="M179.991 120.412v-10.617h6.227l-9.817-13.42-9.817 13.42h6.227v10.617h7.18Zm116.508 30.856v-8.473h4.97l-7.835-10.712-7.835 10.712h4.968v8.473h5.732Zm61.87 41.545c17.382 0 31.473-14.091 31.473-31.473 0-17.382-14.091-31.473-31.473-31.473-17.382 0-31.473 14.091-31.473 31.473 0 17.382 14.091 31.473 31.473 31.473Z" fill="#9C19E0"/><path d="M364.826 162.817a.98.98 0 0 0-1.094-.005.992.992 0 0 0-.273.271l-5.123 7.612-11.893-16.225a.993.993 0 0 0-.645-.391.999.999 0 0 0-.733.18.99.99 0 0 0-.211 1.378l12.532 17.088v64.272a.984.984 0 0 0 1.968 0v-64.289l5.739-8.525a.973.973 0 0 0 .004-1.094.988.988 0 0 0-.271-.272Z" fill="#B9B9B9" fill-opacity=".5"/><path d="M414.634 192.808h-51.892v44.922h51.892v-44.922Z" fill="#E8E8E8" fill-opacity=".88"/><path d="M359.461 192.808h55.175l19.473-26.996h-55.175l-19.473 26.996Z" fill="#B9B9B9" fill-opacity=".5"/><path d="m453.582 192.808-19.473-26.996-.953 1.32 18.521 25.676h1.905Z" fill="#B9B9B9" fill-opacity=".5"/><path d="M414.636 192.808v44.922h37.041v-44.922l-18.521-25.676-18.52 25.676Z" fill="#E8E8E8" fill-opacity=".88"/><path d="M369.539 217.722h16.08v-16.08h-16.08v16.08Z" fill="#B9B9B9" fill-opacity=".5"/><path d="M384.586 216.69v-14.015h-15.048v-1.033h16.081v16.08h-1.033v-1.032Z" fill="#B9B9B9" fill-opacity=".5"/><path d="M378.096 201.642h-1.034v16.08h1.034v-16.08Z" fill="#B9B9B9" fill-opacity=".5"/><path d="M385.618 209.165h-16.08v1.033h16.08v-1.033Zm39.5 8.557h16.08v-16.08h-16.08v16.08Z" fill="#B9B9B9" fill-opacity=".5"/><path d="M440.164 216.69v-14.015h-15.048v-1.033h16.08v16.08h-1.032v-1.032Z" fill="#B9B9B9" fill-opacity=".5"/><path d="M433.674 201.642h-1.033v16.08h1.033v-16.08Z" fill="#B9B9B9" fill-opacity=".5"/><path d="M441.196 209.165h-16.08v1.033h16.08v-1.033Zm-48.585 28.567h14.513V208.36h-14.513v29.372Z" fill="#B9B9B9" fill-opacity=".5"/><path d="M405.954 209.445h-13.341v-1.087h14.513v29.372h-1.172v-28.285Z" fill="#B9B9B9" fill-opacity=".5"/><path d="M414.634 192.808h-51.892v1.162h51.892v-1.162Z" fill="#E8E8E8" fill-opacity=".88"/><path d="m433.156 167.132-18.52 25.676v1.162l18.936-26.263-.416-.575Zm-27.992 55.62h-2.23a.097.097 0 0 0-.097.096v.392c0 .053.044.097.097.097h2.23a.098.098 0 0 0 .097-.097v-.392a.097.097 0 0 0-.097-.096Zm-32.623 14.88a7.876 7.876 0 0 0 .751-8.254 7.884 7.884 0 0 0-7.049-4.359 7.878 7.878 0 0 0-6.297 12.613h12.595Zm88.036 0a11.699 11.699 0 0 0 1.113-12.247 11.691 11.691 0 1 0-19.808 12.247h18.695Z" fill="#B9B9B9" fill-opacity=".5"/><path d="M446.521 237.632a6.922 6.922 0 0 0-1.892-10.039 6.913 6.913 0 0 0-9.825 2.793 6.913 6.913 0 0 0 .658 7.246h11.059Z" fill="#E8E8E8" fill-opacity=".88"/><path d="m431.218 169.818.218-.301h-5.942l2.667-3.705h-.372l-2.666 3.705h-5.759l2.667-3.705h-.373l-2.667 3.705h-5.757l2.667-3.705h-.36l-2.667 3.705h-5.758l2.667-3.705h-.374l-2.666 3.705h-5.757l2.667-3.705h-.372l-2.667 3.705h-5.758l2.667-3.705h-.374l-2.666 3.705h-5.775l2.666-3.705h-.373l-2.667 3.705h-5.758l2.667-3.705h-.369l-2.666 3.705h-5.945l-.219.301h5.945l-2.565 3.555h-5.943l-.218.304h5.945l-2.567 3.548h-5.943l-.219.303h5.944l-2.564 3.554h-5.945l-.216.303h5.943l-2.563 3.553h-5.945l-.217.304h5.943l-2.563 3.553h-5.24l-.692-.017-.231.32h5.945l-2.667 3.705h.373l2.667-3.705h5.757l-2.667 3.705h.372l2.666-3.705h5.759l-2.667 3.705h.37l2.667-3.705h5.756l-2.666 3.705h.371l2.667-3.705h5.758l-2.666 3.705h.373l2.667-3.705h5.756l-2.666 3.705h.371l2.667-3.705h5.758l-2.666 3.705h.373l2.667-3.705h5.756l-2.666 3.705h.373l2.667-3.705h5.941l.219-.303h-5.942l2.563-3.553h5.942l.218-.304h-5.925l2.564-3.553h5.936l.217-.303h-5.942l2.564-3.554h5.943l.218-.303h-5.943l2.565-3.553h5.942l.218-.304h-5.948l2.565-3.555 5.945.005Zm-18.204 0h5.759l-2.565 3.555h-5.759l2.565-3.555Zm-17.833 7.715h5.757l-2.564 3.554h-5.75l2.557-3.554Zm-2.938 3.554h-5.757l2.563-3.554h5.759l-2.565 3.554Zm9.068-3.554h5.758l-2.565 3.554h-5.756l2.563-3.554Zm.23-.308 2.563-3.553h5.759l-2.567 3.553h-5.755Zm-.373 0h-5.759l2.565-3.553h5.757l-2.563 3.553Zm-6.13 0h-5.759l2.564-3.553h5.758l-2.563 3.553Zm-6.132 0h-5.758l2.565-3.553h5.758l-2.565 3.553Zm-.218.303-2.564 3.554h-5.758l2.565-3.554h5.757Zm-2.785 3.864-2.564 3.553h-5.758l2.563-3.553h5.759Zm.373 0h5.765l-2.565 3.553h-5.768l2.568-3.553Zm6.13 0h5.758l-2.563 3.553h-5.758l2.563-3.553Zm6.132 0h5.756l-2.563 3.553h-5.757l2.564-3.553Zm6.13 0h5.758l-2.563 3.553h-5.759l2.564-3.553Zm.218-.304 2.563-3.553h5.759l-2.564 3.553h-5.758Zm2.782-3.856 2.565-3.554h5.756l-2.563 3.547-5.758.007Zm-.785-7.412h5.758l-2.563 3.555h-5.759l2.564-3.555Zm-6.13 0h5.758l-2.565 3.555h-5.757l2.564-3.555Zm-6.132 0h5.753l-2.563 3.555h-5.753l2.563-3.555Zm-6.13 0h5.758l-2.565 3.555h-5.756l2.563-3.555Zm-6.132 0h5.759l-2.564 3.555h-5.758l2.563-3.555Zm-2.781 3.858h5.758l-2.563 3.547h-5.759l2.564-3.547Zm-2.782 3.857h5.758l-2.563 3.553h-5.758l2.563-3.553Zm-2.782 3.857h5.759l-2.565 3.551h-5.757l2.563-3.551Zm.412 7.41h-5.757l2.564-3.554h5.758l-2.565 3.554Zm6.132 0h-5.759l2.564-3.554h5.758l-2.563 3.554Zm6.13 0h-5.759l2.565-3.554h5.759l-2.565 3.554Zm6.131 0h-5.758l2.563-3.554h5.759l-2.564 3.554Zm6.13 0h-5.758l2.565-3.554h5.757l-2.564 3.554Zm6.132 0h-5.758l2.563-3.554h5.758l-2.563 3.554Zm6.13 0h-5.758l2.565-3.554h5.756l-2.563 3.554Zm2.782-3.857h-5.757l2.563-3.553h5.757l-2.563 3.553Zm2.781-3.857h-5.756l2.563-3.553h5.758l-2.565 3.553Zm2.784-3.856h-5.759l2.564-3.554h5.758l-2.563 3.554Zm2.781-3.857h-5.758l2.563-3.555h5.759l-2.564 3.555Z" fill="#fff" style="mix-blend-mode:soft-light"/><path d="M389.164 161.34v12.088l4.585-5.668v-6.42h-4.585Zm0 0h-6.836v12.088h6.836V161.34Z" fill="#B9B9B9" fill-opacity=".5"/><path d="M420.292 145.293v-7.928h4.65l-7.33-10.022-7.331 10.022h4.65v7.928h5.361Zm-368.128-1.606v-8.474h4.97L49.3 124.502l-7.835 10.711h4.97v8.474h5.73Z" fill="#9C19E0"/></g><defs><linearGradient id="b" x1="230.174" y1="430.813" x2="249.5" y2="-40" gradientUnits="userSpaceOnUse"><stop offset=".383" stop-color="#9C19E0"/><stop offset="1" stop-color="#F5E2FF"/></linearGradient><clipPath id="a"><path fill="#fff" d="M0 0h462.922v451.422H0z"/></clipPath></defs></svg>