<svg width="200" height="138" viewBox="0 0 200 138" fill="none" xmlns="http://www.w3.org/2000/svg"><path d="M164.687 137.5c-6.25 0-11.041-2.654-14.375-7.962-3.333-5.317-3.541-10.788-.624-16.413L162.5 87.5h-25c-6.875 0-12.758-2.45-17.65-7.35-4.9-4.892-7.35-10.775-7.35-17.65V25c0-6.875 2.45-12.758 7.35-17.65C124.742 2.45 130.625 0 137.5 0H175c6.875 0 12.762 2.45 17.663 7.35C197.554 12.242 200 18.125 200 25v56.563a36.65 36.65 0 0 1-.475 5.787 14.372 14.372 0 0 1-2.025 5.463l-17.812 35.312c-1.459 2.917-3.542 5.208-6.25 6.875-2.709 1.667-5.626 2.5-8.751 2.5Zm-112.5 0c-6.25 0-11.041-2.654-14.374-7.962-3.334-5.317-3.542-10.788-.626-16.413L50 87.5H25c-6.875 0-12.758-2.45-17.65-7.35C2.45 75.258 0 69.375 0 62.5V25c0-6.875 2.45-12.758 7.35-17.65C12.242 2.45 18.125 0 25 0h37.5c6.875 0 12.763 2.45 17.662 7.35C85.054 12.242 87.5 18.125 87.5 25v56.563c0 1.874-.154 3.804-.463 5.787A14.543 14.543 0 0 1 85 92.813l-17.813 35.312c-1.458 2.917-3.541 5.208-6.25 6.875-2.708 1.667-5.624 2.5-8.75 2.5Z" fill="#AB2FEC"/></svg>